{
  "accessors": [
    {
      "bufferView": 0,
      "byteOffset": 0,
      "componentType": 5126,
      "count": 4,
      "max": [1, 0, 1],
      "min": [-1, 0, -1],
      "normalized": false,
      "type": "VEC3"
    },
    {
      "bufferView": 1,
      "byteOffset": 0,
      "componentType": 5126,
      "count": 4,
      "max": [1, -0.000978, -0.000978, 1],
      "min": [1, -0.000978, -0.000978, 1],
      "normalized": false,
      "type": "VEC4"
    },
    {
      "bufferView": 2,
      "byteOffset": 0,
      "componentType": 5126,
      "count": 4,
      "max": [-0.000978, 0.999999, -0.000978],
      "min": [-0.000978, 0.999999, -0.000978],
      "normalized": false,
      "type": "VEC3"
    },
    {
      "bufferView": 3,
      "byteOffset": 0,
      "componentType": 5126,
      "count": 4,
      "max": [1, 1],
      "min": [0, 0],
      "normalized": false,
      "type": "VEC2"
    },
    {
      "bufferView": 4,
      "byteOffset": 0,
      "componentType": 5126,
      "count": 4,
      "max": [0.997525, 0.997525],
      "min": [0.002475, 0.002475],
      "normalized": false,
      "type": "VEC2"
    },
    {
      "bufferView": 5,
      "byteOffset": 0,
      "componentType": 5125,
      "count": 6,
      "max": [3],
      "min": [0],
      "normalized": false,
      "type": "SCALAR"
    },
    {
      "bufferView": 6,
      "byteOffset": 0,
      "componentType": 5126,
      "count": 1999,
      "max": [1, 1, 1],
      "min": [-1, -1, -1],
      "normalized": false,
      "type": "VEC3"
    },
    {
      "bufferView": 7,
      "byteOffset": 0,
      "componentType": 5126,
      "count": 1999,
      "max": [0.994135, -0.000978, 0.994135, 1],
      "min": [-0.99609, -0.000978, -0.99609, 1],
      "normalized": false,
      "type": "VEC4"
    },
    {
      "bufferView": 8,
      "byteOffset": 0,
      "componentType": 5126,
      "count": 1999,
      "max": [0.990584, 0.995306, 0.990584],
      "min": [-0.99062, -0.995325, -0.99062],
      "normalized": false,
      "type": "VEC3"
    },
    {
      "bufferView": 9,
      "byteOffset": 0,
      "componentType": 5126,
      "count": 1999,
      "max": [1, 1],
      "min": [0, 0],
      "normalized": false,
      "type": "VEC2"
    },
    {
      "bufferView": 10,
      "byteOffset": 0,
      "componentType": 5126,
      "count": 1999,
      "max": [0.985294, 0.977273],
      "min": [0.014706, 0.022727],
      "normalized": false,
      "type": "VEC2"
    },
    {
      "bufferView": 11,
      "byteOffset": 0,
      "componentType": 5125,
      "count": 2880,
      "max": [1983],
      "min": [0],
      "normalized": false,
      "type": "SCALAR"
    },
    {
      "bufferView": 12,
      "byteOffset": 0,
      "componentType": 5126,
      "count": 4,
      "max": [1, 0, 1],
      "min": [-1, 0, -1],
      "normalized": false,
      "type": "VEC3"
    },
    {
      "bufferView": 13,
      "byteOffset": 0,
      "componentType": 5126,
      "count": 4,
      "max": [1, -0.000978, -0.000978, 1],
      "min": [1, -0.000978, -0.000978, 1],
      "normalized": false,
      "type": "VEC4"
    },
    {
      "bufferView": 14,
      "byteOffset": 0,
      "componentType": 5126,
      "count": 4,
      "max": [-0.000978, 0.999999, -0.000978],
      "min": [-0.000978, 0.999999, -0.000978],
      "normalized": false,
      "type": "VEC3"
    },
    {
      "bufferView": 15,
      "byteOffset": 0,
      "componentType": 5126,
      "count": 4,
      "max": [1, 1],
      "min": [0, 0],
      "normalized": false,
      "type": "VEC2"
    },
    {
      "bufferView": 16,
      "byteOffset": 0,
      "componentType": 5126,
      "count": 4,
      "max": [0.997525, 0.997525],
      "min": [0.002475, 0.002475],
      "normalized": false,
      "type": "VEC2"
    },
    {
      "bufferView": 17,
      "byteOffset": 0,
      "componentType": 5125,
      "count": 6,
      "max": [3],
      "min": [0],
      "normalized": false,
      "type": "SCALAR"
    },
    {
      "bufferView": 18,
      "byteOffset": 0,
      "componentType": 5126,
      "count": 1999,
      "max": [1, 1, 1],
      "min": [-1, -1, -1],
      "normalized": false,
      "type": "VEC3"
    },
    {
      "bufferView": 19,
      "byteOffset": 0,
      "componentType": 5126,
      "count": 1999,
      "max": [0.994135, -0.000978, 0.994135, 1],
      "min": [-0.99609, -0.000978, -0.99609, 1],
      "normalized": false,
      "type": "VEC4"
    },
    {
      "bufferView": 20,
      "byteOffset": 0,
      "componentType": 5126,
      "count": 1999,
      "max": [0.990584, 0.995306, 0.990584],
      "min": [-0.99062, -0.995325, -0.99062],
      "normalized": false,
      "type": "VEC3"
    },
    {
      "bufferView": 21,
      "byteOffset": 0,
      "componentType": 5126,
      "count": 1999,
      "max": [1, 1],
      "min": [0, 0],
      "normalized": false,
      "type": "VEC2"
    },
    {
      "bufferView": 22,
      "byteOffset": 0,
      "componentType": 5126,
      "count": 1999,
      "max": [0.985294, 0.977273],
      "min": [0.014706, 0.022727],
      "normalized": false,
      "type": "VEC2"
    },
    {
      "bufferView": 23,
      "byteOffset": 0,
      "componentType": 5125,
      "count": 2880,
      "max": [1983],
      "min": [0],
      "normalized": false,
      "type": "SCALAR"
    },
    {
      "bufferView": 24,
      "byteOffset": 0,
      "componentType": 5126,
      "count": 22,
      "max": [5],
      "min": [0],
      "normalized": false,
      "type": "SCALAR"
    },
    {
      "bufferView": 25,
      "byteOffset": 0,
      "componentType": 5126,
      "count": 22,
      "max": [0, 0.999781, 0, 1],
      "min": [0, -0.999781, 0, 0.020942],
      "normalized": false,
      "type": "VEC4"
    },
    {
      "bufferView": 26,
      "byteOffset": 0,
      "componentType": 5126,
      "count": 1,
      "max": [0],
      "min": [0],
      "normalized": false,
      "type": "SCALAR"
    },
    {
      "bufferView": 27,
      "byteOffset": 0,
      "componentType": 5126,
      "count": 1,
      "max": [0, 0, 0, 1],
      "min": [0, 0, 0, 1],
      "normalized": false,
      "type": "VEC4"
    },
    {
      "bufferView": 28,
      "byteOffset": 0,
      "componentType": 5126,
      "count": 22,
      "max": [5],
      "min": [0],
      "normalized": false,
      "type": "SCALAR"
    },
    {
      "bufferView": 29,
      "byteOffset": 0,
      "componentType": 5126,
      "count": 22,
      "max": [0, 0.999781, 0, 1],
      "min": [0, -0.999781, 0, 0.020942],
      "normalized": false,
      "type": "VEC4"
    },
    {
      "bufferView": 30,
      "byteOffset": 0,
      "componentType": 5126,
      "count": 1,
      "max": [0],
      "min": [0],
      "normalized": false,
      "type": "SCALAR"
    },
    {
      "bufferView": 31,
      "byteOffset": 0,
      "componentType": 5126,
      "count": 1,
      "max": [0, 0, 0, 1],
      "min": [0, 0, 0, 1],
      "normalized": false,
      "type": "VEC4"
    }
  ],
  "animations": [
    {
      "channels": [
        { "sampler": 0, "target": { "node": 2, "path": "rotation" } }
      ],
      "name": "RotationAction",
      "samplers": [{ "input": 24, "interpolation": "LINEAR", "output": 25 }]
    },
    {
      "channels": [
        { "sampler": 0, "target": { "node": 2, "path": "rotation" } }
      ],
      "name": "SphereAction",
      "samplers": [{ "input": 26, "interpolation": "LINEAR", "output": 27 }]
    },
    {
      "channels": [
        { "sampler": 0, "target": { "node": 2, "path": "rotation" } }
      ],
      "name": "RotationAction2",
      "samplers": [{ "input": 28, "interpolation": "LINEAR", "output": 29 }]
    },
    {
      "channels": [
        { "sampler": 0, "target": { "node": 2, "path": "rotation" } }
      ],
      "name": "SphereAction2",
      "samplers": [{ "input": 30, "interpolation": "LINEAR", "output": 31 }]
    }
  ],
  "asset": {
    "generator": "Godot Engine v4.0.alpha.custom_build@00a2823428135b77e4d6b4315e76da92357cfdec",
    "version": "2.0"
  },
  "bufferViews": [
    { "buffer": 0, "byteLength": 48, "byteOffset": 0 },
    { "buffer": 0, "byteLength": 64, "byteOffset": 48 },
    { "buffer": 0, "byteLength": 48, "byteOffset": 112 },
    { "buffer": 0, "byteLength": 32, "byteOffset": 160 },
    { "buffer": 0, "byteLength": 32, "byteOffset": 192 },
    { "buffer": 0, "byteLength": 24, "byteOffset": 224 },
    { "buffer": 0, "byteLength": 23988, "byteOffset": 248 },
    { "buffer": 0, "byteLength": 31984, "byteOffset": 24236 },
    { "buffer": 0, "byteLength": 23988, "byteOffset": 56220 },
    { "buffer": 0, "byteLength": 15992, "byteOffset": 80208 },
    { "buffer": 0, "byteLength": 15992, "byteOffset": 96200 },
    { "buffer": 0, "byteLength": 11520, "byteOffset": 112192 },
    { "buffer": 0, "byteLength": 48, "byteOffset": 123712 },
    { "buffer": 0, "byteLength": 64, "byteOffset": 123760 },
    { "buffer": 0, "byteLength": 48, "byteOffset": 123824 },
    { "buffer": 0, "byteLength": 32, "byteOffset": 123872 },
    { "buffer": 0, "byteLength": 32, "byteOffset": 123904 },
    { "buffer": 0, "byteLength": 24, "byteOffset": 123936 },
    { "buffer": 0, "byteLength": 23988, "byteOffset": 123960 },
    { "buffer": 0, "byteLength": 31984, "byteOffset": 147948 },
    { "buffer": 0, "byteLength": 23988, "byteOffset": 179932 },
    { "buffer": 0, "byteLength": 15992, "byteOffset": 203920 },
    { "buffer": 0, "byteLength": 15992, "byteOffset": 219912 },
    { "buffer": 0, "byteLength": 11520, "byteOffset": 235904 },
    { "buffer": 0, "byteLength": 88, "byteOffset": 247424 },
    { "buffer": 0, "byteLength": 352, "byteOffset": 247512 },
    { "buffer": 0, "byteLength": 4, "byteOffset": 247864 },
    { "buffer": 0, "byteLength": 16, "byteOffset": 247868 },
    { "buffer": 0, "byteLength": 88, "byteOffset": 247884 },
    { "buffer": 0, "byteLength": 352, "byteOffset": 247972 },
    { "buffer": 0, "byteLength": 4, "byteOffset": 248324 },
    { "buffer": 0, "byteLength": 16, "byteOffset": 248328 }
  ],
  "buffers": [{ "byteLength": 248344, "uri": "OMI_audio_emitter-simple0.bin" }],
  "extensions": ["OMI_audio_emitter"],
  "extensionsRequired": ["KHR_texture_transform"],
  "extensionsUsed": [
    "KHR_lights_punctual",
    "KHR_texture_transform",
    "OMI_audio_emitter"
  ],
  "materials": [
    {
      "doubleSided": true,
      "name": "Material002",
      "pbrMetallicRoughness": {
        "baseColorFactor": [
          0.799999892711639, 0.799999892711639, 0.799999892711639, 1
        ],
        "metallicFactor": 0,
        "roughnessFactor": 0.899999976158142
      }
    },
    {
      "doubleSided": true,
      "name": "Material001",
      "pbrMetallicRoughness": {
        "baseColorFactor": [0.00162459467537701, 0, 0.799999892711639, 1],
        "metallicFactor": 0,
        "roughnessFactor": 0.899999976158142
      }
    }
  ],
  "meshes": [
    {
      "extras": { "targetNames": [] },
      "primitives": [
        {
          "attributes": {
            "NORMAL": 2,
            "POSITION": 0,
            "TANGENT": 1,
            "TEXCOORD_0": 3,
            "TEXCOORD_1": 4
          },
          "indices": 5,
          "material": 0,
          "mode": 4
        }
      ]
    },
    {
      "extras": { "targetNames": [] },
      "primitives": [
        {
          "attributes": {
            "NORMAL": 8,
            "POSITION": 6,
            "TANGENT": 7,
            "TEXCOORD_0": 9,
            "TEXCOORD_1": 10
          },
          "indices": 11,
          "material": 1,
          "mode": 4
        }
      ]
    },
    {
      "extras": { "targetNames": [] },
      "primitives": [
        {
          "attributes": {
            "NORMAL": 14,
            "POSITION": 12,
            "TANGENT": 13,
            "TEXCOORD_0": 15,
            "TEXCOORD_1": 16
          },
          "indices": 17,
          "material": 0,
          "mode": 4
        }
      ]
    },
    {
      "extras": { "targetNames": [] },
      "primitives": [
        {
          "attributes": {
            "NORMAL": 20,
            "POSITION": 18,
            "TANGENT": 19,
            "TEXCOORD_0": 21,
            "TEXCOORD_1": 22
          },
          "indices": 23,
          "material": 1,
          "mode": 4
        }
      ]
    }
  ],
  "nodes": [
    {
      "children": [1, 2, 5],
      "extensions": {},
      "name": "OMI_audio_emitter-simple"
    },
    { "extensions": {}, "mesh": 0, "name": "Plane", "scale": [10, 10, 10] },
    { "children": [3], "extensions": {}, "name": "Rotation" },
    {
      "children": [4],
      "extensions": {},
      "mesh": 1,
      "name": "Sphere",
      "scale": [0.5, 0.5, 0.5],
      "translation": [5.60583114624023, 1.01604783535004, 0]
    },
    { "extensions": {}, "name": "talking" },
    { "extensions": {}, "name": "AnimationPlayer" },
    {
      "children": [7, 8, 11],
      "extensions": {},
      "name": "OMI_audio_emitter-simple2"
    },
    { "extensions": {}, "mesh": 2, "name": "Plane2", "scale": [10, 10, 10] },
    { "children": [9], "extensions": {}, "name": "Rotation2" },
    {
      "children": [10],
      "extensions": {},
      "mesh": 3,
      "name": "Sphere2",
      "scale": [0.5, 0.5, 0.5],
      "translation": [5.60583114624023, 1.01604783535004, 0]
    },
    { "extensions": {}, "name": "talking2" },
    { "extensions": {}, "name": "AnimationPlayer2" }
  ],
  "scene": 0,
  "scenes": [{ "nodes": [0] }]
}
